<svg width="40" height="40" viewBox="0 0 40 40" fill="none" xmlns="http://www.w3.org/2000/svg">
<path d="M11.8747 23.75C10.7622 23.75 9.67466 24.0799 8.74964 24.698C7.82461 25.3161 7.10364 26.1946 6.6779 27.2224C6.25215 28.2502 6.14076 29.3812 6.3578 30.4724C6.57484 31.5635 7.11057 32.5658 7.89724 33.3525C8.68391 34.1391 9.68619 34.6749 10.7773 34.8919C11.8685 35.109 12.9995 34.9976 14.0273 34.5718C15.0551 34.1461 15.9337 33.4251 16.5517 32.5001C17.1698 31.5751 17.4997 30.4875 17.4997 29.375C17.4997 27.8832 16.9071 26.4524 15.8522 25.3975C14.7973 24.3426 13.3666 23.75 11.8747 23.75ZM11.8747 32.5C11.2567 32.5 10.6525 32.3167 10.1386 31.9733C9.62466 31.63 9.22412 31.1419 8.98759 30.5709C8.75107 29.9999 8.68919 29.3715 8.80976 28.7653C8.93034 28.1592 9.22797 27.6023 9.66501 27.1653C10.102 26.7283 10.6589 26.4306 11.2651 26.31C11.8713 26.1895 12.4996 26.2514 13.0706 26.4879C13.6416 26.7244 14.1297 27.1249 14.4731 27.6388C14.8164 28.1527 14.9997 28.7569 14.9997 29.375C14.9997 29.7854 14.9189 30.1917 14.7618 30.5709C14.6048 30.95 14.3746 31.2945 14.0844 31.5847C13.7942 31.8749 13.4497 32.1051 13.0706 32.2621C12.6915 32.4192 12.2851 32.5 11.8747 32.5ZM6.61534 16.6156L8.85753 14.375L6.61534 12.1344C6.38079 11.8998 6.24902 11.5817 6.24902 11.25C6.24902 10.9183 6.38079 10.6002 6.61534 10.3656C6.84989 10.1311 7.16801 9.99931 7.49972 9.9993C7.83142 9.9993 8.14954 10.1311 8.38409 10.3656L10.6247 12.6078L12.8653 10.3656C13.0999 10.1311 13.418 9.9993 13.7497 9.9993C14.0814 9.99931 14.3995 10.1311 14.6341 10.3656C14.8686 10.6002 15.0004 10.9183 15.0004 11.25C15.0004 11.5817 14.8686 11.8998 14.6341 12.1344L12.3919 14.375L14.6341 16.6156C14.8686 16.8502 15.0004 17.1683 15.0004 17.5C15.0004 17.8317 14.8686 18.1498 14.6341 18.3844C14.3995 18.6189 14.0814 18.7507 13.7497 18.7507C13.418 18.7507 13.0999 18.6189 12.8653 18.3844L10.6247 16.1422L8.38409 18.3844C8.14954 18.6189 7.83142 18.7507 7.49972 18.7507C7.16801 18.7507 6.84989 18.6189 6.61534 18.3844C6.38079 18.1498 6.24902 17.8317 6.24902 17.5C6.24902 17.1683 6.38079 16.8502 6.61534 16.6156ZM35.8841 31.6156C36.0002 31.7318 36.0924 31.8696 36.1552 32.0214C36.2181 32.1731 36.2504 32.3358 36.2504 32.5C36.2504 32.6642 36.2181 32.8269 36.1552 32.9786C36.0924 33.1304 36.0002 33.2682 35.8841 33.3844C35.768 33.5005 35.6301 33.5926 35.4783 33.6555C35.3266 33.7183 35.164 33.7507 34.9997 33.7507C34.8355 33.7507 34.6728 33.7183 34.5211 33.6555C34.3694 33.5926 34.2315 33.5005 34.1153 33.3844L31.8747 31.1422L29.6341 33.3844C29.3995 33.6189 29.0814 33.7507 28.7497 33.7507C28.418 33.7507 28.0999 33.6189 27.8653 33.3844C27.6308 33.1498 27.499 32.8317 27.499 32.5C27.499 32.1683 27.6308 31.8502 27.8653 31.6156L30.1075 29.375L27.8653 27.1344C27.6308 26.8998 27.499 26.5817 27.499 26.25C27.499 25.9183 27.6308 25.6002 27.8653 25.3656C28.0999 25.1311 28.418 24.9993 28.7497 24.9993C29.0814 24.9993 29.3995 25.1311 29.6341 25.3656L31.8747 27.6078L34.1153 25.3656C34.3499 25.1311 34.668 24.9993 34.9997 24.9993C35.3314 24.9993 35.6495 25.1311 35.8841 25.3656C36.1186 25.6002 36.2504 25.9183 36.2504 26.25C36.2504 26.5817 36.1186 26.8998 35.8841 27.1344L33.6419 29.375L35.8841 31.6156ZM28.8232 17.6297C27.8575 21.1187 24.8669 24.1344 21.5528 24.9625C21.4537 24.9871 21.3519 24.9997 21.2497 25C20.9449 24.9994 20.6508 24.8875 20.4227 24.6853C20.1947 24.4831 20.0483 24.2045 20.0113 23.9019C19.9742 23.5994 20.049 23.2937 20.2216 23.0425C20.3941 22.7912 20.6525 22.6116 20.9482 22.5375C23.3903 21.9266 25.6903 19.5828 26.4169 16.9625C26.9153 15.1656 26.92 12.4313 24.1185 9.63438L23.7497 9.26719V12.5C23.7497 12.8315 23.618 13.1495 23.3836 13.3839C23.1492 13.6183 22.8312 13.75 22.4997 13.75C22.1682 13.75 21.8503 13.6183 21.6158 13.3839C21.3814 13.1495 21.2497 12.8315 21.2497 12.5V6.25C21.2497 5.91848 21.3814 5.60054 21.6158 5.36612C21.8503 5.1317 22.1682 5 22.4997 5H28.7497C29.0812 5 29.3992 5.1317 29.6336 5.36612C29.868 5.60054 29.9997 5.91848 29.9997 6.25C29.9997 6.58152 29.868 6.89946 29.6336 7.13388C29.3992 7.3683 29.0812 7.5 28.7497 7.5H25.5169L25.8841 7.86562C28.7341 10.7172 29.7778 14.1844 28.8232 17.6297Z" fill="#161515"/>
</svg>
