<svg width="20" height="20" viewBox="0 0 20 20" fill="none" xmlns="http://www.w3.org/2000/svg">
<path d="M19.7503 10.8125C19.5909 12.6649 18.9058 14.4334 17.7756 15.9097C16.6453 17.386 15.1169 18.5089 13.3702 19.1461C11.6234 19.7833 9.73107 19.9083 7.91568 19.5066C6.10029 19.1048 4.43741 18.1929 3.12268 16.8782C1.80794 15.5634 0.89605 13.9006 0.494283 12.0852C0.0925168 10.2698 0.217591 8.37741 0.854791 6.63069C1.49199 4.88397 2.61481 3.35557 4.09114 2.2253C5.56748 1.09504 7.33591 0.409938 9.18839 0.250595C9.28688 0.242469 9.38601 0.253823 9.48011 0.284007C9.57421 0.314191 9.66145 0.362614 9.73684 0.426513C9.81223 0.490411 9.8743 0.568533 9.91949 0.656417C9.96469 0.744302 9.99214 0.840229 10.0003 0.93872C10.0084 1.03721 9.99703 1.13634 9.96685 1.23044C9.93667 1.32455 9.88824 1.41178 9.82434 1.48717C9.76045 1.56256 9.68232 1.62463 9.59444 1.66983C9.50655 1.71502 9.41063 1.74247 9.31214 1.75059C7.74425 1.88531 6.24745 2.46503 4.99786 3.42156C3.74827 4.37809 2.79788 5.67162 2.2585 7.14996C1.71913 8.6283 1.61321 10.2299 1.95322 11.7664C2.29322 13.3029 3.065 14.7104 4.17775 15.8231C5.2905 16.9359 6.69792 17.7076 8.23442 18.0476C9.77091 18.3876 11.3726 18.2817 12.8509 17.7424C14.3292 17.203 15.6228 16.2526 16.5793 15.003C17.5358 13.7534 18.1155 12.2566 18.2503 10.6887C18.2667 10.4898 18.3614 10.3056 18.5137 10.1765C18.6659 10.0475 18.8632 9.98418 19.0621 10.0006C19.261 10.017 19.4453 10.1118 19.5743 10.264C19.7034 10.4163 19.7667 10.6136 19.7503 10.8125ZM9.25026 4.7506V10.0006C9.25026 10.1995 9.32928 10.3903 9.46993 10.5309C9.61058 10.6716 9.80135 10.7506 10.0003 10.7506H15.2503C15.4492 10.7506 15.6399 10.6716 15.7806 10.5309C15.9212 10.3903 16.0003 10.1995 16.0003 10.0006C16.0003 9.80168 15.9212 9.61092 15.7806 9.47026C15.6399 9.32961 15.4492 9.2506 15.2503 9.2506H10.7503V4.7506C10.7503 4.55168 10.6712 4.36092 10.5306 4.22026C10.3899 4.07961 10.1992 4.00059 10.0003 4.0006C9.80135 4.00059 9.61058 4.07961 9.46993 4.22026C9.32928 4.36092 9.25026 4.55168 9.25026 4.7506ZM13.0003 2.5006C13.2228 2.5006 13.4403 2.43461 13.6253 2.311C13.8103 2.18738 13.9545 2.01168 14.0396 1.80611C14.1248 1.60055 14.1471 1.37435 14.1036 1.15612C14.0602 0.93789 13.9531 0.737434 13.7958 0.5801C13.6384 0.422766 13.438 0.31562 13.2197 0.272212C13.0015 0.228803 12.7753 0.251082 12.5697 0.336231C12.3642 0.421379 12.1885 0.565573 12.0649 0.750578C11.9412 0.935584 11.8753 1.15309 11.8753 1.37559C11.8753 1.67396 11.9938 1.96011 12.2048 2.17109C12.4157 2.38207 12.7019 2.5006 13.0003 2.5006ZM16.3753 4.7506C16.5978 4.7506 16.8153 4.68462 17.0003 4.561C17.1853 4.43738 17.3295 4.26168 17.4146 4.05611C17.4998 3.85055 17.5221 3.62435 17.4786 3.40612C17.4352 3.18789 17.3281 2.98743 17.1708 2.8301C17.0134 2.67277 16.813 2.56562 16.5947 2.52221C16.3765 2.4788 16.1503 2.50108 15.9447 2.58623C15.7392 2.67138 15.5635 2.81557 15.4399 3.00058C15.3162 3.18558 15.2503 3.40309 15.2503 3.6256C15.2503 3.92396 15.3688 4.21011 15.5798 4.42109C15.7907 4.63207 16.0769 4.7506 16.3753 4.7506ZM18.6253 8.12559C18.8478 8.12559 19.0653 8.05961 19.2503 7.936C19.4353 7.81238 19.5795 7.63668 19.6646 7.43111C19.7498 7.22555 19.7721 6.99935 19.7286 6.78112C19.6852 6.56289 19.5781 6.36243 19.4208 6.2051C19.2634 6.04777 19.063 5.94062 18.8447 5.89721C18.6265 5.8538 18.4003 5.87608 18.1947 5.96123C17.9892 6.04638 17.8135 6.19057 17.6899 6.37558C17.5662 6.56058 17.5003 6.77809 17.5003 7.00059C17.5003 7.29896 17.6188 7.58511 17.8298 7.79609C18.0407 8.00707 18.3269 8.12559 18.6253 8.12559Z" fill="#FFCC32"/>
</svg>
