<svg width="32" height="32" viewBox="0 0 32 32" fill="none" xmlns="http://www.w3.org/2000/svg">
              <rect x="0.5" y="0.5" width="31" height="31" rx="15.5" fill="white" />
              <rect x="0.5" y="0.5" width="31" height="31" rx="15.5" stroke="#BEBEBE" />
              <path
                d="M20.854 20.1465C20.9005 20.193 20.9373 20.2481 20.9625 20.3088C20.9876 20.3695 21.0006 20.4346 21.0006 20.5003C21.0006 20.566 20.9876 20.631 20.9625 20.6917C20.9373 20.7524 20.9005 20.8076 20.854 20.854C20.8076 20.9005 20.7524 20.9373 20.6917 20.9625C20.631 20.9876 20.566 21.0006 20.5003 21.0006C20.4346 21.0006 20.3695 20.9876 20.3088 20.9625C20.2481 20.9373 20.193 20.9005 20.1465 20.854L16.0003 16.7072L11.854 20.854C11.7602 20.9478 11.633 21.0006 11.5003 21.0006C11.3676 21.0006 11.2403 20.9478 11.1465 20.854C11.0527 20.7602 11 20.633 11 20.5003C11 20.3676 11.0527 20.2403 11.1465 20.1465L15.2934 16.0003L11.1465 11.854C11.0527 11.7602 11 11.633 11 11.5003C11 11.3676 11.0527 11.2403 11.1465 11.1465C11.2403 11.0527 11.3676 11 11.5003 11C11.633 11 11.7602 11.0527 11.854 11.1465L16.0003 15.2934L20.1465 11.1465C20.2403 11.0527 20.3676 11 20.5003 11C20.633 11 20.7602 11.0527 20.854 11.1465C20.9478 11.2403 21.0006 11.3676 21.0006 11.5003C21.0006 11.633 20.9478 11.7602 20.854 11.854L16.7072 16.0003L20.854 20.1465Z"
                fill="black" />
            </svg>