<svg xmlns="http://www.w3.org/2000/svg" width="171" height="56" viewBox="0 0 171 56" fill="none">
  <path fill-rule="evenodd" clip-rule="evenodd" d="M36.6851 12.5748L28.2596 17.6937C27.2925 18.2805 26.0196 17.9722 25.4304 17.0026L20.6421 9.12155C20.0529 8.15445 20.3637 6.88155 21.3333 6.29233L29.7588 1.17339C30.7259 0.584174 31.9988 0.89494 32.588 1.86453L37.3763 9.74557C37.963 10.7127 37.6547 11.9856 36.6851 12.5748Z" fill="#FFCC32"/>
  <path fill-rule="evenodd" clip-rule="evenodd" d="M51.5337 19.1179L45.4476 22.8148C44.749 23.2399 43.8292 23.0162 43.404 22.3151L39.9458 16.6219C39.5207 15.9233 39.7445 15.0034 40.4455 14.5783L46.5316 10.8814C47.2302 10.4562 48.1501 10.68 48.5752 11.3811L52.0334 17.0743C52.4585 17.7729 52.2348 18.6928 51.5337 19.1179Z" fill="#FFCC32"/>
  <mask id="mask0_12442_24826" style="mask-type:luminance" maskUnits="userSpaceOnUse" x="39" y="10" width="14" height="14">
    <path d="M51.5376 19.1179L45.4515 22.8148C44.7529 23.2399 43.8331 23.0162 43.4079 22.3151L39.9497 16.6219C39.5246 15.9233 39.7484 15.0034 40.4494 14.5783L46.5355 10.8814C47.2341 10.4562 48.154 10.68 48.5791 11.3811L52.0373 17.0743C52.4624 17.7729 52.2387 18.6928 51.5376 19.1179Z" fill="white"/>
  </mask>
  <g mask="url(#mask0_12442_24826)">
    <path d="M52.4588 10.459H39.5234V23.2402H52.4588V10.459Z" fill="#FFCC32"/>
  </g>
  <path fill-rule="evenodd" clip-rule="evenodd" d="M51.5993 34.2429L46.7265 37.2039C46.1671 37.5445 45.4312 37.3655 45.0906 36.8036L42.321 32.2441C41.9804 31.6847 42.1594 30.9488 42.7213 30.6082L47.5941 27.6472C48.1535 27.3066 48.8894 27.4856 49.23 28.0475L51.9996 32.607C52.3402 33.1664 52.1587 33.9023 51.5993 34.2429Z" fill="#FFCC32"/>
  <mask id="mask1_12442_24826" style="mask-type:luminance" maskUnits="userSpaceOnUse" x="42" y="27" width="11" height="11">
    <path d="M51.5993 34.2449L46.7265 37.2059C46.1671 37.5465 45.4312 37.3675 45.0906 36.8056L42.321 32.246C41.9804 31.6866 42.1594 30.9507 42.7213 30.6101L47.5941 27.6492C48.1535 27.3086 48.8894 27.4876 49.23 28.0494L51.9996 32.609C52.3402 33.1684 52.1587 33.9043 51.5993 34.2449Z" fill="white"/>
  </mask>
  <g mask="url(#mask1_12442_24826)">
    <path d="M52.3402 27.3086H41.9805V37.5465H52.3402V27.3086Z" fill="#FFCC32"/>
  </g>
  <path fill-rule="evenodd" clip-rule="evenodd" d="M46.1772 44.3705L43.4947 46.0014C43.1864 46.1878 42.7812 46.0909 42.5947 45.7826L41.0707 43.2741C40.8843 42.9658 40.9837 42.5605 41.2895 42.3741L43.972 40.7432C44.2803 40.5567 44.6856 40.6537 44.872 40.962L46.396 43.4705C46.5825 43.7788 46.483 44.184 46.1772 44.3705Z" fill="#FFCC32"/>
  <mask id="mask2_12442_24826" style="mask-type:luminance" maskUnits="userSpaceOnUse" x="40" y="40" width="7" height="7">
    <path d="M46.1772 44.3705L43.4947 46.0014C43.1864 46.1878 42.7812 46.0909 42.5947 45.7826L41.0707 43.2741C40.8843 42.9658 40.9837 42.5605 41.2895 42.3741L43.972 40.7432C44.2803 40.5567 44.6856 40.6537 44.872 40.962L46.396 43.4705C46.5825 43.7788 46.483 44.184 46.1772 44.3705Z" fill="white"/>
  </mask>
  <g mask="url(#mask2_12442_24826)">
    <path d="M46.586 40.5547H40.8828V46.1883H46.586V40.5547Z" fill="#FFCC32"/>
  </g>
  <path fill-rule="evenodd" clip-rule="evenodd" d="M16.1454 43.8846L24.6803 38.9546C25.6598 38.3878 26.9253 38.7259 27.4921 39.7079L32.1064 47.6933C32.6732 48.6729 32.3351 49.9383 31.3531 50.5052L22.8182 55.4352C21.8386 56.002 20.5732 55.6639 20.0064 54.6819L15.3921 46.6964C14.8253 45.7169 15.1634 44.4514 16.1454 43.8846Z" fill="#FFCC32"/>
  <mask id="mask3_12442_24826" style="mask-type:luminance" maskUnits="userSpaceOnUse" x="15" y="38" width="18" height="18">
    <path d="M16.1415 43.8846L24.6764 38.9546C25.6559 38.3878 26.9214 38.7259 27.4882 39.7079L32.1025 47.6933C32.6693 48.6729 32.3312 49.9383 31.3492 50.5052L22.8143 55.4352C21.8347 56.002 20.5693 55.6639 20.0024 54.6819L15.3882 46.6964C14.8213 45.7169 15.1595 44.4514 16.1415 43.8846Z" fill="white"/>
  </mask>
  <g mask="url(#mask3_12442_24826)">
    <path d="M32.6683 38.3867H14.8203V56.001H32.6683V38.3867Z" fill="#FFCC32"/>
  </g>
  <path fill-rule="evenodd" clip-rule="evenodd" d="M1.45295 37.0866L7.61359 33.5414C8.32214 33.1337 9.23455 33.3773 9.64227 34.0834L12.9712 39.8214C13.3789 40.5249 13.1353 41.4349 12.4267 41.8426L6.2661 45.3853C5.55756 45.793 4.64515 45.5494 4.23742 44.8433L0.90849 39.1054C0.500764 38.3993 0.744405 37.4919 1.45295 37.0841" fill="#FFCC32"/>
  <mask id="mask4_12442_24826" style="mask-type:luminance" maskUnits="userSpaceOnUse" x="0" y="33" width="14" height="13">
    <path d="M1.45295 37.0847L7.61359 33.5394C8.32214 33.1317 9.23455 33.3754 9.64227 34.0814L12.9712 39.8194C13.3789 40.523 13.1353 41.4329 12.4267 41.8406L6.2661 45.3834C5.55756 45.7911 4.64515 45.5475 4.23742 44.8414L0.90849 39.1034C0.500764 38.3973 0.744405 37.4899 1.45295 37.0822" fill="white"/>
  </mask>
  <g mask="url(#mask4_12442_24826)">
    <path d="M13.3806 33.1348H0.5V45.7917H13.3806V33.1348Z" fill="#FFCC32"/>
  </g>
  <path fill-rule="evenodd" clip-rule="evenodd" d="M1.72694 21.943L6.66191 19.1312C7.22875 18.808 7.95967 19.0019 8.28784 19.5588L10.9555 24.1109C11.2811 24.6703 11.0872 25.3913 10.5204 25.7145L5.58541 28.5238C5.01858 28.847 4.28765 28.6531 3.95948 28.0937L1.29186 23.5441C0.963694 22.9847 1.1601 22.2637 1.72694 21.9405" fill="#FFCC32"/>
  <mask id="mask5_12442_24826" style="mask-type:luminance" maskUnits="userSpaceOnUse" x="1" y="18" width="11" height="11">
    <path d="M1.72694 21.943L6.66191 19.1312C7.22875 18.808 7.95967 19.0019 8.28784 19.5588L10.9555 24.1109C11.2811 24.6703 11.0872 25.3913 10.5204 25.7145L5.58541 28.5238C5.01858 28.847 4.28765 28.6531 3.95948 28.0937L1.29186 23.5441C0.963694 22.9847 1.1601 22.2637 1.72694 21.9405" fill="white"/>
  </mask>
  <g mask="url(#mask5_12442_24826)">
    <path d="M11.2809 18.8066H0.960938V28.8456H11.2809V18.8066Z" fill="#FFCC32"/>
  </g>
  <path fill-rule="evenodd" clip-rule="evenodd" d="M7.6888 12.0892L10.0084 10.7691C10.2744 10.6174 10.6175 10.7069 10.7716 10.9705L12.0246 13.1085C12.1788 13.3696 12.0868 13.7102 11.8208 13.8618L9.50119 15.182C9.23517 15.3336 8.8896 15.2441 8.73795 14.9806L7.48494 12.8425C7.3308 12.579 7.42278 12.2409 7.6888 12.0892Z" fill="#FFCC32"/>
  <mask id="mask6_12442_24826" style="mask-type:luminance" maskUnits="userSpaceOnUse" x="7" y="10" width="6" height="6">
    <path d="M7.69271 12.0892L10.0123 10.7691C10.2783 10.6174 10.6214 10.7069 10.7755 10.9705L12.0285 13.1085C12.1827 13.3696 12.0907 13.7102 11.8247 13.8618L9.5051 15.182C9.23908 15.3336 8.89351 15.2441 8.74185 14.9806L7.48884 12.8425C7.3347 12.579 7.42669 12.2409 7.69271 12.0892Z" fill="white"/>
  </mask>
  <g mask="url(#mask6_12442_24826)">
    <path d="M12.1839 10.6172H7.33594V15.3334H12.1839V10.6172Z" fill="#FFCC32"/>
  </g>
  <path d="M118.377 28.9133H110.056L107.307 24.8187H116.341V23.1629H110.183C109.621 23.1629 109.136 22.959 108.731 22.5513C108.324 22.1461 108.12 21.6588 108.12 21.1044V14.1283H112.242V19.0658H116.341V13.3129H108.12V11.2543C108.12 10.7124 108.324 10.235 108.731 9.82978C109.134 9.42206 109.621 9.2182 110.183 9.2182H120.436V26.8474C120.436 27.4067 120.232 27.894 119.824 28.2993C119.422 28.707 118.934 28.9108 118.377 28.9108M94.1551 23.1629V14.1308H98.2771V23.1629H94.1551ZM102.372 23.1629V13.3129H94.1551V9.2182H104.408C104.965 9.2182 105.452 9.41211 105.855 9.80244C106.263 10.1928 106.466 10.6751 106.466 11.2543V23.1604H102.372V23.1629ZM82.2689 23.1629C81.7095 23.1629 81.2272 22.959 80.8194 22.5513C80.4092 22.1461 80.2079 21.6588 80.2079 21.0969V16.1918C80.2079 15.6324 80.4117 15.1451 80.8194 14.7424C81.2297 14.3347 81.7095 14.1283 82.2713 14.1283H84.8694L87.619 18.223H84.3348V19.0658H88.4295V14.1283H92.5242V23.1604H82.2713L82.2689 23.1629ZM80.2079 13.3129L82.9575 9.2182H90.4607C91.0399 9.2182 91.5297 9.41709 91.9225 9.81487C92.3228 10.2102 92.5217 10.6925 92.5217 11.2543V13.3129H80.2054H80.2079ZM66.2383 23.1629V6.75195H70.3329V23.1629H66.2383ZM134.381 21.9248H134.401V23.7049H136.141V26.457H131.651V23.1654H124.128C123.573 23.1654 123.086 22.9615 122.683 22.5538C122.276 22.1511 122.072 21.6638 122.072 21.1019V9.22317H126.194V19.0707H130.288V9.22068H134.383V21.9273L134.381 21.9248ZM76.6229 23.1629H71.1509V19.0682H79.3725L76.6229 23.1629Z" fill="white"/>
  <path d="M168.735 49.8314H160.389L157.644 45.7367H164.665L159.372 40.7993H165.274C166.599 41.9379 167.924 43.0666 169.244 44.1879C170.263 45.2047 170.771 45.9953 170.771 46.5497V47.7754C170.771 48.285 170.554 48.7524 170.124 49.1875C169.692 49.6176 169.224 49.8339 168.735 49.8339M158.454 39.9813V37.9228C158.454 37.3808 158.658 36.901 159.066 36.4983C159.469 36.0905 159.956 35.8867 160.518 35.8867H168.021L170.771 39.9813H158.454ZM153.952 49.8314H145.755C145.201 49.8314 144.714 49.6275 144.311 49.2198C143.903 48.817 143.697 48.3298 143.697 47.7729V40.7968H147.819V45.7342H151.913V40.7968H156.008V47.7729C156.008 48.3298 155.804 48.817 155.396 49.2198C154.991 49.6275 154.506 49.8314 153.949 49.8314H153.952ZM143.697 39.9813V37.9228C143.697 37.3808 143.901 36.901 144.311 36.4983C144.714 36.0905 145.201 35.8867 145.755 35.8867H153.952C154.524 35.8867 155.016 36.0856 155.411 36.4858C155.812 36.8811 156.01 37.3634 156.01 37.9228V39.9813H143.699H143.697ZM126.47 49.8314V40.7993H130.592V49.8314H126.47ZM132.221 49.8314V40.7993H136.315V49.8314H132.221ZM137.969 49.8314V39.9813H126.47V35.8867H140.03C140.589 35.8867 141.071 36.0856 141.467 36.4858C141.867 36.8811 142.066 37.3634 142.066 37.9228V49.8289H137.971L137.969 49.8314ZM122.092 49.8314H113.751C113.192 49.8314 112.705 49.6275 112.299 49.2198C111.892 48.817 111.688 48.3298 111.688 47.7679V37.9228C111.688 37.3808 111.892 36.901 112.299 36.4983C112.705 36.0905 113.189 35.8867 113.751 35.8867H121.968C122.527 35.8867 123.007 36.0856 123.405 36.4858C123.805 36.8811 124.004 37.3634 124.004 37.9228V39.9813H115.81V45.7367H124.842L122.092 49.8314ZM121.968 44.8939H119.37L116.62 40.7993H123.999V42.8603C123.999 43.4197 123.803 43.902 123.405 44.2973C123.005 44.6975 122.527 44.8964 121.968 44.8964V44.8939ZM102.653 49.8314V39.9813H101V35.8867H102.653V30.9492L106.748 33.6989V49.8314H102.653ZM107.566 39.9813V35.8867H108.1L110.85 39.9813H107.566ZM97.5889 49.8314H89.2429L86.4982 45.7367H93.5191L88.2261 40.7993H94.1282C95.4533 41.9379 96.7784 43.0666 98.0985 44.1879C99.1178 45.2047 99.625 45.9953 99.625 46.5497V47.7754C99.625 48.285 99.4087 48.7524 98.9786 49.1875C98.546 49.6176 98.0786 49.8339 97.5889 49.8339V49.8314ZM87.3087 39.9813V37.9228C87.3087 37.3808 87.5126 36.901 87.9203 36.4983C88.3231 36.0905 88.8103 35.8867 89.3722 35.8867H96.8754L99.625 39.9813H87.3087ZM80.3326 34.2334V30.9517H84.4546V34.2334H80.3326ZM80.3326 49.8314V35.8892H84.4546V49.8314H80.3326ZM76.5164 49.8314H68.1705L65.4258 45.7367H72.4466L67.1536 40.7993H73.0557C74.3808 41.9379 75.7059 43.0666 77.0261 44.1879C78.0454 45.2047 78.5526 45.9953 78.5526 46.5497V47.7754C78.5526 48.285 78.3363 48.7524 77.9062 49.1875C77.4736 49.6176 77.0062 49.8339 76.5164 49.8339V49.8314ZM66.2388 39.9813V37.9228C66.2388 37.3808 66.4426 36.901 66.8503 36.4983C67.2531 36.0905 67.7404 35.8867 68.3022 35.8867H75.8054L78.555 39.9813H66.2388Z" fill="white"/>
</svg>