<svg width="48" height="49" viewBox="0 0 48 49" fill="none" xmlns="http://www.w3.org/2000/svg">
<path d="M30.0413 4.5V1.5C30.0413 1.10218 30.1993 0.720644 30.4806 0.43934C30.7619 0.158035 31.1434 0 31.5413 0C31.9391 0 32.3206 0.158035 32.6019 0.43934C32.8832 0.720644 33.0413 1.10218 33.0413 1.5V4.5C33.0413 4.89782 32.8832 5.27936 32.6019 5.56066C32.3206 5.84196 31.9391 6 31.5413 6C31.1434 6 30.7619 5.84196 30.4806 5.56066C30.1993 5.27936 30.0413 4.89782 30.0413 4.5ZM36.7688 7.6875C37.0039 7.83194 37.2747 7.90791 37.5507 7.90687C37.8081 7.90729 38.0613 7.84144 38.2859 7.71567C38.5105 7.5899 38.699 7.40844 38.8331 7.18875L40.3331 4.73063C40.4357 4.5622 40.5041 4.37523 40.5344 4.18039C40.5647 3.98554 40.5563 3.78664 40.5097 3.59503C40.4631 3.40342 40.3793 3.22286 40.2629 3.06366C40.1466 2.90446 40 2.76974 39.8316 2.66719C39.6632 2.56463 39.4762 2.49626 39.2813 2.46596C39.0865 2.43566 38.8876 2.44404 38.696 2.49062C38.5044 2.53719 38.3238 2.62105 38.1646 2.7374C38.0054 2.85376 37.8707 3.00033 37.7681 3.16875L36.2681 5.625C36.1655 5.79327 36.097 5.98012 36.0666 6.17487C36.0362 6.36963 36.0445 6.56846 36.091 6.76001C36.1375 6.95155 36.2213 7.13206 36.3376 7.29121C36.4539 7.45035 36.6004 7.58502 36.7688 7.6875ZM45.6769 10.0481C45.6165 9.8604 45.5196 9.68642 45.3919 9.53616C45.2642 9.3859 45.1081 9.26231 44.9325 9.17244C44.757 9.08258 44.5654 9.02821 44.3689 9.01246C44.1723 8.9967 43.9745 9.01987 43.7869 9.08063L40.9632 9.99C40.622 10.0991 40.3312 10.3266 40.1432 10.6314C39.9552 10.9363 39.8825 11.2983 39.9382 11.6521C39.9939 12.0059 40.1744 12.3281 40.447 12.5604C40.7195 12.7927 41.0663 12.9198 41.4244 12.9188C41.581 12.9182 41.7366 12.8935 41.8857 12.8456L44.7075 11.9362C44.8961 11.8761 45.0708 11.7792 45.2217 11.6511C45.3727 11.5231 45.4967 11.3665 45.5869 11.1902C45.677 11.014 45.7313 10.8217 45.7468 10.6244C45.7622 10.4271 45.7385 10.2287 45.6769 10.0406V10.0481ZM40.6875 18.2962C42.2761 21.0583 42.9465 24.2535 42.6021 27.4211C42.2577 30.5887 40.9163 33.5651 38.7713 35.9212C38.7075 36.2456 38.6363 36.57 38.5481 36.8925C37.7748 39.7606 36.169 42.3353 33.9336 44.2915C31.6981 46.2477 28.9331 47.4977 25.9877 47.8837C23.0424 48.2696 20.0487 47.7743 17.3846 46.4601C14.7206 45.146 12.5056 43.072 11.0194 40.5L4.40627 29.0625C4.0046 28.3666 3.78116 27.5822 3.75584 26.7791C3.73052 25.976 3.90409 25.1791 4.26113 24.4593C4.61816 23.7395 5.14758 23.119 5.80229 22.6532C6.45699 22.1874 7.21668 21.8907 8.01377 21.7894L7.45127 20.8144C7.05012 20.1191 6.82688 19.3354 6.80137 18.5331C6.77586 17.7308 6.94888 16.9346 7.30505 16.2152C7.66122 15.4958 8.18953 14.8755 8.84306 14.4093C9.49659 13.9432 10.2551 13.6457 11.0513 13.5431L10.92 13.3125C10.364 12.3549 10.1505 11.2365 10.3148 10.1413C10.479 9.04622 11.0113 8.03966 11.8238 7.28733C12.6364 6.535 13.6809 6.08174 14.7854 6.00213C15.8899 5.92253 16.9886 6.22134 17.9006 6.84937C18.3408 6.12441 18.9621 5.5265 19.7034 5.11445C20.4447 4.70239 21.2805 4.49039 22.1286 4.49928C22.9766 4.50817 23.8078 4.73765 24.5403 5.16516C25.2728 5.59266 25.8814 6.20347 26.3063 6.9375L28.605 10.9125C29.0939 10.2749 29.7325 9.76756 30.4642 9.43551C31.1959 9.10347 31.9981 8.95692 32.7999 9.00883C33.6018 9.06074 34.3784 9.30951 35.0612 9.73313C35.744 10.1567 36.3118 10.7421 36.7144 11.4375L40.6875 18.2962ZM20.4506 10.3125L25.1381 18.4069C25.5291 17.8952 26.0175 17.4661 26.5753 17.1443C27.133 16.8225 27.7489 16.6143 28.3875 16.5319L23.7038 8.4375C23.4551 8.00611 23.0453 7.69116 22.5645 7.56193C22.0836 7.43271 21.5711 7.4998 21.1397 7.74844C20.7083 7.99708 20.3934 8.4069 20.2641 8.88776C20.1349 9.36861 20.202 9.88111 20.4506 10.3125ZM13.5225 11.8125L14.7338 13.9069C15.1249 13.3958 15.6131 12.9671 16.1704 12.6453C16.7277 12.3235 17.3431 12.1151 17.9813 12.0319L16.7719 9.9375C16.6488 9.72414 16.4849 9.53712 16.2895 9.38712C16.0941 9.23712 15.871 9.12707 15.6331 9.06326C15.3952 8.99945 15.147 8.98312 14.9028 9.01522C14.6586 9.04731 14.4231 9.1272 14.2097 9.25031C13.9964 9.37343 13.8093 9.53736 13.6593 9.73275C13.5093 9.92814 13.3993 10.1512 13.3355 10.3891C13.2717 10.627 13.2553 10.8752 13.2874 11.1194C13.3195 11.3636 13.3994 11.5991 13.5225 11.8125ZM34.4363 27L30.645 20.4375C30.415 19.9964 30.0192 19.6648 29.5447 19.5155C29.0702 19.3662 28.5558 19.4116 28.1147 19.6416C27.6736 19.8716 27.342 20.2673 27.1927 20.7419C27.0434 21.2164 27.0888 21.7308 27.3188 22.1719L29.6813 26.25C29.8802 26.5949 29.934 27.0046 29.8308 27.3891C29.7275 27.7736 29.4758 28.1014 29.131 28.3003C28.7861 28.4992 28.3763 28.553 27.9918 28.4498C27.6073 28.3466 27.2796 28.0949 27.0806 27.75L20.2369 15.9375C19.9883 15.5061 19.5784 15.1912 19.0976 15.0619C18.6167 14.9327 18.1042 14.9998 17.6728 15.2484C17.2414 15.4971 16.9265 15.9069 16.7973 16.3878C16.668 16.8686 16.7351 17.3811 16.9838 17.8125L21.8681 26.25C22.0671 26.5949 22.1208 27.0046 22.0176 27.3891C21.9144 27.7736 21.6627 28.1014 21.3178 28.3003C20.973 28.4992 20.5632 28.553 20.1787 28.4498C19.7942 28.3466 19.4664 28.0949 19.2675 27.75L13.3125 17.4375C13.0639 17.0066 12.6543 16.6921 12.1737 16.5633C11.6932 16.4344 11.1812 16.5017 10.7503 16.7503C10.3194 16.999 10.005 17.4086 9.87609 17.8891C9.74722 18.3696 9.81451 18.8816 10.0631 19.3125L16.6669 30.75C16.8658 31.0954 16.9194 31.5056 16.8158 31.8905C16.7123 32.2753 16.4601 32.6033 16.1147 32.8022C15.7693 33.0011 15.3591 33.0547 14.9743 32.9511C14.5894 32.8476 14.2614 32.5954 14.0625 32.25L10.26 25.6875C10.0114 25.2564 9.60165 24.9416 9.12098 24.8126C8.6403 24.6835 8.12804 24.7507 7.6969 24.9994C7.26575 25.248 6.95104 25.6577 6.82199 26.1384C6.69295 26.6191 6.76013 27.1314 7.00877 27.5625L13.6219 39C14.8115 41.0566 16.5838 42.7146 18.7149 43.7647C20.8461 44.8148 23.2406 45.2099 25.5962 44.9002C27.9518 44.5905 30.1628 43.5897 31.95 42.0244C33.7373 40.459 35.0207 38.3992 35.6382 36.105C36.0504 34.5833 36.1564 32.995 35.9501 31.432C35.7438 29.869 35.2292 28.3626 34.4363 27ZM38.0756 19.7962L34.1119 12.9375C33.9888 12.7235 33.8247 12.5359 33.6291 12.3853C33.4335 12.2348 33.2101 12.1242 32.9718 12.0599C32.4904 11.9302 31.9772 11.997 31.545 12.2456C31.3311 12.3687 31.1434 12.5328 30.9929 12.7284C30.8423 12.924 30.7317 13.1474 30.6675 13.3858C30.5377 13.8672 30.6045 14.3804 30.8531 14.8125L37.0406 25.5094C37.8984 26.9883 38.4976 28.6027 38.8125 30.2831C39.4905 28.5932 39.7764 26.7714 39.6488 24.955C39.5211 23.1386 38.9833 21.3748 38.0756 19.7962Z" fill="black"/>
</svg>
