<svg width="152" height="49" viewBox="0 0 152 49" fill="none" xmlns="http://www.w3.org/2000/svg">
<path fill-rule="evenodd" clip-rule="evenodd" d="M32.1663 10.3998L24.677 14.95C23.8173 15.4715 22.6859 15.1975 22.1621 14.3356L17.9059 7.33027C17.3821 6.47062 17.6583 5.33915 18.5202 4.81541L26.0095 0.265233C26.8692 -0.258512 28.0007 0.0177245 28.5244 0.879584L32.7807 7.88495C33.3022 8.7446 33.0282 9.87607 32.1663 10.3998Z" fill="#FFCC32"/>
<path fill-rule="evenodd" clip-rule="evenodd" d="M45.3589 16.2159L39.9491 19.5021C39.3281 19.8799 38.5105 19.6811 38.1326 19.0579L35.0586 13.9972C34.6807 13.3762 34.8796 12.5586 35.5028 12.1807L40.9126 8.89456C41.5336 8.51666 42.3513 8.71555 42.7292 9.33874L45.8031 14.3994C46.181 15.0204 45.9821 15.838 45.3589 16.2159Z" fill="#FFCC32"/>
<mask id="mask0_11611_11986" style="mask-type:luminance" maskUnits="userSpaceOnUse" x="34" y="8" width="12" height="12">
<path d="M45.3589 16.2159L39.9491 19.5021C39.3281 19.8799 38.5105 19.6811 38.1326 19.0579L35.0586 13.9972C34.6807 13.3762 34.8796 12.5586 35.5028 12.1807L40.9126 8.89456C41.5336 8.51666 42.3513 8.71555 42.7292 9.33874L45.8031 14.3994C46.181 15.0204 45.9821 15.838 45.3589 16.2159Z" fill="white"/>
</mask>
<g mask="url(#mask0_11611_11986)">
<path d="M46.1778 8.51953H34.6797V19.8806H46.1778V8.51953Z" fill="#FFCC32"/>
</g>
<path fill-rule="evenodd" clip-rule="evenodd" d="M45.4242 29.6589L41.0928 32.2908C40.5956 32.5936 39.9414 32.4345 39.6387 31.935L37.1769 27.8821C36.8741 27.3849 37.0332 26.7307 37.5327 26.428L41.864 23.796C42.3613 23.4932 43.0154 23.6524 43.3182 24.1518L45.78 28.2047C46.0827 28.702 45.9214 29.3561 45.4242 29.6589Z" fill="#FFCC32"/>
<mask id="mask1_11611_11986" style="mask-type:luminance" maskUnits="userSpaceOnUse" x="37" y="23" width="9" height="10">
<path d="M45.4242 29.6589L41.0928 32.2908C40.5956 32.5936 39.9414 32.4345 39.6387 31.935L37.1769 27.8821C36.8741 27.3849 37.0332 26.7307 37.5327 26.428L41.864 23.796C42.3613 23.4932 43.0154 23.6524 43.3182 24.1518L45.78 28.2047C46.0827 28.702 45.9214 29.3561 45.4242 29.6589Z" fill="white"/>
</mask>
<g mask="url(#mask1_11611_11986)">
<path d="M46.0836 23.4941H36.875V32.5945H46.0836V23.4941Z" fill="#FFCC32"/>
</g>
<path fill-rule="evenodd" clip-rule="evenodd" d="M40.5994 38.662L38.2149 40.1117C37.9409 40.2774 37.5807 40.1912 37.4149 39.9172L36.0603 37.6874C35.8945 37.4134 35.9829 37.0532 36.2547 36.8874L38.6392 35.4377C38.9132 35.272 39.2735 35.3582 39.4392 35.6322L40.7939 37.862C40.9596 38.136 40.8712 38.4962 40.5994 38.662Z" fill="#FFCC32"/>
<mask id="mask2_11611_11986" style="mask-type:luminance" maskUnits="userSpaceOnUse" x="35" y="35" width="6" height="6">
<path d="M40.5994 38.662L38.2149 40.1117C37.9409 40.2774 37.5807 40.1912 37.4149 39.9172L36.0603 37.6874C35.8945 37.4134 35.9829 37.0532 36.2547 36.8874L38.6392 35.4377C38.9132 35.272 39.2735 35.3582 39.4392 35.6322L40.7939 37.862C40.9596 38.136 40.8712 38.4962 40.5994 38.662Z" fill="white"/>
</mask>
<g mask="url(#mask2_11611_11986)">
<path d="M40.9601 35.2695H35.8906V40.2772H40.9601V35.2695Z" fill="#FFCC32"/>
</g>
<path fill-rule="evenodd" clip-rule="evenodd" d="M13.9061 38.2281L21.4927 33.8459C22.3634 33.3421 23.4883 33.6426 23.9921 34.5155L28.0937 41.6137C28.5975 42.4844 28.297 43.6092 27.4241 44.1131L19.8375 48.4953C18.9668 48.9992 17.842 48.6986 17.3381 47.8257L13.2365 40.7275C12.7327 39.8568 13.0332 38.732 13.9061 38.2281Z" fill="#FFCC32"/>
<mask id="mask3_11611_11986" style="mask-type:luminance" maskUnits="userSpaceOnUse" x="12" y="33" width="17" height="16">
<path d="M13.9061 38.2281L21.4927 33.8459C22.3634 33.3421 23.4883 33.6426 23.9921 34.5155L28.0937 41.6137C28.5975 42.4844 28.297 43.6092 27.4241 44.1131L19.8375 48.4953C18.9668 48.9992 17.842 48.6986 17.3381 47.8257L13.2365 40.7275C12.7327 39.8568 13.0332 38.732 13.9061 38.2281Z" fill="white"/>
</mask>
<g mask="url(#mask3_11611_11986)">
<path d="M28.5992 33.3418H12.7344V48.9989H28.5992V33.3418Z" fill="#FFCC32"/>
</g>
<path fill-rule="evenodd" clip-rule="evenodd" d="M0.847069 32.1864L6.32319 29.0351C6.95301 28.6726 7.76404 28.8892 8.12646 29.5168L11.0855 34.6172C11.4479 35.2426 11.2314 36.0515 10.6015 36.4139L5.12543 39.563C4.49561 39.9254 3.68457 39.7088 3.32215 39.0812L0.363102 33.9808C0.000679165 33.3532 0.217249 32.5466 0.847069 32.1842" fill="#FFCC32"/>
<mask id="mask4_11611_11986" style="mask-type:luminance" maskUnits="userSpaceOnUse" x="0" y="28" width="12" height="12">
<path d="M0.847069 32.1864L6.32319 29.0351C6.95301 28.6726 7.76404 28.8892 8.12646 29.5168L11.0855 34.6172C11.4479 35.2426 11.2314 36.0515 10.6015 36.4139L5.12543 39.563C4.49561 39.9254 3.68457 39.7088 3.32215 39.0812L0.363102 33.9808C0.000679165 33.3532 0.217249 32.5466 0.847069 32.1842" fill="white"/>
</mask>
<g mask="url(#mask4_11611_11986)">
<path d="M11.4495 28.6758H0V39.9264H11.4495V28.6758Z" fill="#FFCC32"/>
</g>
<path fill-rule="evenodd" clip-rule="evenodd" d="M1.09061 18.7265L5.47725 16.2271C5.98111 15.9398 6.63082 16.1121 6.92252 16.6072L9.29374 20.6535C9.58324 21.1507 9.41086 21.7916 8.90701 22.0789L4.52037 24.576C4.01651 24.8633 3.3668 24.691 3.0751 24.1937L0.703879 20.1496C0.412173 19.6524 0.586754 19.0115 1.09061 18.7242" fill="#FFCC32"/>
<mask id="mask5_11611_11986" style="mask-type:luminance" maskUnits="userSpaceOnUse" x="0" y="16" width="10" height="9">
<path d="M1.09061 18.7265L5.47725 16.2271C5.98111 15.9398 6.63082 16.1121 6.92252 16.6072L9.29374 20.6535C9.58324 21.1507 9.41086 21.7916 8.90701 22.0789L4.52037 24.576C4.01651 24.8633 3.3668 24.691 3.0751 24.1937L0.703879 20.1496C0.412173 19.6524 0.586754 19.0115 1.09061 18.7242" fill="white"/>
</mask>
<g mask="url(#mask5_11611_11986)">
<path d="M9.57952 15.9395H0.40625V24.863H9.57952V15.9395Z" fill="#FFCC32"/>
</g>
<path fill-rule="evenodd" clip-rule="evenodd" d="M6.38831 9.96949L8.45014 8.79604C8.6866 8.66123 8.99156 8.74079 9.12858 8.97504L10.2424 10.8755C10.3794 11.1076 10.2976 11.4103 10.0612 11.5451L7.99932 12.7186C7.76286 12.8534 7.45569 12.7738 7.32088 12.5396L6.2071 10.6391C6.07008 10.4048 6.15185 10.1043 6.38831 9.96949Z" fill="#FFCC32"/>
<mask id="mask6_11611_11986" style="mask-type:luminance" maskUnits="userSpaceOnUse" x="6" y="8" width="5" height="5">
<path d="M6.38831 9.96949L8.45014 8.79604C8.6866 8.66123 8.99156 8.74079 9.12858 8.97504L10.2424 10.8755C10.3794 11.1076 10.2976 11.4103 10.0612 11.5451L7.99932 12.7186C7.76286 12.8534 7.45569 12.7738 7.32088 12.5396L6.2071 10.6391C6.07008 10.4048 6.15185 10.1043 6.38831 9.96949Z" fill="white"/>
</mask>
<g mask="url(#mask6_11611_11986)">
<path d="M10.3796 8.66211H6.07031V12.8543H10.3796V8.66211Z" fill="#FFCC32"/>
</g>
<path d="M104.776 24.9236H97.3791L94.9349 21.2839H102.966V19.8121H97.4918C96.9924 19.8121 96.5614 19.6309 96.2012 19.2685C95.8388 18.9083 95.6576 18.4751 95.6576 17.9823V11.7814H99.3216V16.1702H102.966V11.0565H95.6576V9.22673C95.6576 8.74497 95.8388 8.32067 96.2012 7.96046C96.5592 7.59804 96.9924 7.41683 97.4918 7.41683H106.605V23.0872C106.605 23.5844 106.424 24.0176 106.062 24.3778C105.704 24.7402 105.271 24.9214 104.776 24.9214M83.2446 19.8121V11.7836H86.9086V19.8121H83.2446ZM90.5483 19.8121V11.0565H83.2446V7.41683H92.3582C92.8532 7.41683 93.2864 7.5892 93.6444 7.93615C94.0068 8.2831 94.188 8.71182 94.188 9.22673V19.8099H90.5483V19.8121ZM72.6791 19.8121C72.1819 19.8121 71.7531 19.6309 71.3907 19.2685C71.0261 18.9083 70.8471 18.4751 70.8471 17.9757V13.6156C70.8471 13.1184 71.0283 12.6852 71.3907 12.3272C71.7554 11.9648 72.1819 11.7814 72.6813 11.7814H74.9906L77.4348 15.4211H74.5155V16.1702H78.1552V11.7814H81.7949V19.8099H72.6813L72.6791 19.8121ZM70.8471 11.0565L73.2912 7.41683H79.9607C80.4756 7.41683 80.9109 7.59362 81.2601 7.9472C81.6159 8.29857 81.7927 8.72729 81.7927 9.22673V11.0565H70.8449H70.8471ZM58.4297 19.8121V5.22461H62.0694V19.8121H58.4297ZM119.001 18.7116H119.018V20.2939H120.565V22.7402H116.574V19.8143H109.887C109.394 19.8143 108.961 19.6331 108.603 19.2707C108.241 18.9127 108.06 18.4796 108.06 17.9801V7.42125H111.724V16.1746H115.363V7.41904H119.003V18.7138L119.001 18.7116ZM67.6604 19.8121H62.7964V16.1724H70.1046L67.6604 19.8121Z" fill="black"/>
<path d="M149.541 43.5185H142.122L139.683 39.8788H145.923L141.218 35.49H146.465C147.643 36.5021 148.82 37.5054 149.994 38.5021C150.9 39.4059 151.351 40.1087 151.351 40.6015V41.6909C151.351 42.144 151.159 42.5594 150.776 42.9462C150.392 43.3285 149.976 43.5207 149.541 43.5207M140.403 34.7629V32.9331C140.403 32.4514 140.584 32.0249 140.947 31.6669C141.305 31.3044 141.738 31.1232 142.237 31.1232H148.907L151.351 34.7629H140.403ZM136.401 43.5185H129.115C128.622 43.5185 128.189 43.3373 127.831 42.9749C127.468 42.6169 127.285 42.1838 127.285 41.6887V35.4878H130.949V39.8766H134.589V35.4878H138.228V41.6887C138.228 42.1838 138.047 42.6169 137.685 42.9749C137.325 43.3373 136.894 43.5185 136.399 43.5185H136.401ZM127.285 34.7629V32.9331C127.285 32.4514 127.466 32.0249 127.831 31.6669C128.189 31.3044 128.622 31.1232 129.115 31.1232H136.401C136.909 31.1232 137.347 31.3 137.698 31.6558C138.054 32.0072 138.231 32.4359 138.231 32.9331V34.7629H127.287H127.285ZM111.973 43.5185V35.49H115.637V43.5185H111.973ZM117.084 43.5185V35.49H120.724V43.5185H117.084ZM122.193 43.5185V34.7629H111.973V31.1232H124.025C124.523 31.1232 124.951 31.3 125.303 31.6558C125.659 32.0072 125.835 32.4359 125.835 32.9331V43.5163H122.196L122.193 43.5185ZM108.081 43.5185H100.667C100.17 43.5185 99.7365 43.3373 99.3763 42.9749C99.0139 42.6169 98.8327 42.1837 98.8327 41.6843V32.9331C98.8327 32.4514 99.0139 32.0249 99.3763 31.6669C99.7365 31.3044 100.167 31.1232 100.667 31.1232H107.971C108.468 31.1232 108.894 31.3 109.248 31.6558C109.604 32.0072 109.78 32.4359 109.78 32.9331V34.7629H102.497V39.8788H110.525L108.081 43.5185ZM107.971 39.1297H105.661L103.217 35.49H109.776V37.322C109.776 37.8192 109.601 38.2479 109.248 38.5993C108.892 38.9551 108.468 39.1319 107.971 39.1319V39.1297ZM90.8019 43.5185V34.7629H89.3323V31.1232H90.8019V26.7344L94.4416 29.1785V43.5185H90.8019ZM95.1687 34.7629V31.1232H95.6438L98.0879 34.7629H95.1687ZM86.3004 43.5185H78.8817L76.442 39.8788H82.6828L77.9779 35.49H83.2242C84.4021 36.5021 85.5799 37.5054 86.7534 38.5021C87.6594 39.4059 88.1103 40.1087 88.1103 40.6015V41.6909C88.1103 42.144 87.918 42.5594 87.5357 42.9462C87.1512 43.3285 86.7357 43.5207 86.3004 43.5207V43.5185ZM77.1624 34.7629V32.9331C77.1624 32.4514 77.3436 32.0249 77.7061 31.6669C78.0641 31.3044 78.4972 31.1232 78.9966 31.1232H85.6661L88.1103 34.7629H77.1624ZM70.9615 29.6536V26.7366H74.6255V29.6536H70.9615ZM70.9615 43.5185V31.1254H74.6255V43.5185H70.9615ZM67.5693 43.5185H60.1507L57.7109 39.8788H63.9517L59.2468 35.49H64.4931C65.671 36.5021 66.8489 37.5054 68.0223 38.5021C68.9284 39.4059 69.3792 40.1087 69.3792 40.6015V41.6909C69.3792 42.144 69.1869 42.5594 68.8046 42.9462C68.4201 43.3285 68.0046 43.5207 67.5693 43.5207V43.5185ZM58.4336 34.7629V32.9331C58.4336 32.4514 58.6148 32.0249 58.9772 31.6669C59.3352 31.3044 59.7684 31.1232 60.2678 31.1232H66.9372L69.3814 34.7629H58.4336Z" fill="black"/>
</svg>
