<svg width="120" height="48" viewBox="0 0 120 48" fill="none" xmlns="http://www.w3.org/2000/svg">
<path fill-rule="evenodd" clip-rule="evenodd" d="M27.1208 13.0499L21.5038 16.4625C20.8591 16.8536 20.0105 16.6481 19.6177 16.0017L16.4255 10.7477C16.0327 10.103 16.2399 9.25436 16.8862 8.86155L22.5033 5.44892C23.148 5.05612 23.9966 5.26329 24.3894 5.90969L27.5816 11.1637C27.9727 11.8084 27.7672 12.657 27.1208 13.0499Z" fill="#FFCC32"/>
<path fill-rule="evenodd" clip-rule="evenodd" d="M37.0212 17.412L32.9638 19.8765C32.4981 20.16 31.8848 20.0108 31.6014 19.5434L29.2959 15.7479C29.0125 15.2822 29.1617 14.6689 29.6291 14.3855L33.6864 11.9209C34.1522 11.6375 34.7654 11.7867 35.0488 12.2541L37.3543 16.0496C37.6377 16.5153 37.4885 17.1285 37.0212 17.412Z" fill="#FFCC32"/>
<mask id="mask0_11683_1757" style="mask-type:luminance" maskUnits="userSpaceOnUse" x="29" y="11" width="9" height="10">
<path d="M37.0212 17.412L32.9638 19.8765C32.4981 20.16 31.8848 20.0108 31.6014 19.5434L29.2959 15.7479C29.0125 15.2822 29.1617 14.6689 29.6291 14.3855L33.6864 11.9209C34.1522 11.6375 34.7654 11.7867 35.0488 12.2541L37.3543 16.0496C37.6377 16.5153 37.4885 17.1285 37.0212 17.412Z" fill="white"/>
</mask>
<g mask="url(#mask0_11683_1757)">
<path d="M37.6353 11.6387H29.0117V20.1595H37.6353V11.6387Z" fill="#FFCC32"/>
</g>
<path fill-rule="evenodd" clip-rule="evenodd" d="M37.0662 27.4946L33.8176 29.4686C33.4447 29.6957 32.9541 29.5764 32.7271 29.2018L30.8807 26.1621C30.6536 25.7891 30.773 25.2985 31.1475 25.0715L34.3961 23.0975C34.769 22.8704 35.2596 22.9898 35.4867 23.3643L37.333 26.404C37.5601 26.777 37.4391 27.2676 37.0662 27.4946Z" fill="#FFCC32"/>
<mask id="mask1_11683_1757" style="mask-type:luminance" maskUnits="userSpaceOnUse" x="30" y="22" width="8" height="8">
<path d="M37.0662 27.4946L33.8176 29.4686C33.4447 29.6957 32.9541 29.5764 32.7271 29.2018L30.8807 26.1621C30.6536 25.7891 30.773 25.2985 31.1475 25.0715L34.3961 23.0975C34.769 22.8704 35.2596 22.9898 35.4867 23.3643L37.333 26.404C37.5601 26.777 37.4391 27.2676 37.0662 27.4946Z" fill="white"/>
</mask>
<g mask="url(#mask1_11683_1757)">
<path d="M37.5588 22.8701H30.6523V29.6954H37.5588V22.8701Z" fill="#FFCC32"/>
</g>
<path fill-rule="evenodd" clip-rule="evenodd" d="M33.4476 34.247L31.6592 35.3342C31.4537 35.4585 31.1836 35.3939 31.0592 35.1884L30.0432 33.516C29.9189 33.3105 29.9852 33.0404 30.1891 32.9161L31.9775 31.8288C32.183 31.7045 32.4531 31.7691 32.5774 31.9746L33.5934 33.647C33.7177 33.8525 33.6515 34.1227 33.4476 34.247Z" fill="#FFCC32"/>
<mask id="mask2_11683_1757" style="mask-type:luminance" maskUnits="userSpaceOnUse" x="29" y="31" width="5" height="5">
<path d="M33.4476 34.247L31.6592 35.3342C31.4537 35.4585 31.1836 35.3939 31.0592 35.1884L30.0432 33.516C29.9189 33.3105 29.9852 33.0404 30.1891 32.9161L31.9775 31.8288C32.183 31.7045 32.4531 31.7691 32.5774 31.9746L33.5934 33.647C33.7177 33.8525 33.6515 34.1227 33.4476 34.247Z" fill="white"/>
</mask>
<g mask="url(#mask2_11683_1757)">
<path d="M33.7201 31.7031H29.918V35.4588H33.7201V31.7031Z" fill="#FFCC32"/>
</g>
<path fill-rule="evenodd" clip-rule="evenodd" d="M13.4277 33.9221L19.1176 30.6354C19.7706 30.2575 20.6142 30.4829 20.9921 31.1376L24.0683 36.4613C24.4462 37.1143 24.2208 37.9579 23.5661 38.3358L17.8762 41.6225C17.2232 42.0004 16.3795 41.7749 16.0016 41.1203L12.9255 35.7966C12.5476 35.1436 12.773 34.3 13.4277 33.9221Z" fill="#FFCC32"/>
<mask id="mask3_11683_1757" style="mask-type:luminance" maskUnits="userSpaceOnUse" x="12" y="30" width="13" height="12">
<path d="M13.4277 33.9221L19.1176 30.6354C19.7706 30.2575 20.6142 30.4829 20.9921 31.1376L24.0683 36.4613C24.4462 37.1143 24.2208 37.9579 23.5661 38.3358L17.8762 41.6225C17.2232 42.0004 16.3795 41.7749 16.0016 41.1203L12.9255 35.7966C12.5476 35.1436 12.773 34.3 13.4277 33.9221Z" fill="white"/>
</mask>
<g mask="url(#mask3_11683_1757)">
<path d="M24.4494 30.2578H12.5508V42.0006H24.4494V30.2578Z" fill="#FFCC32"/>
</g>
<path fill-rule="evenodd" clip-rule="evenodd" d="M3.6353 29.3907L7.74239 27.0273C8.21476 26.7555 8.82303 26.9179 9.09485 27.3886L11.3141 31.2139C11.586 31.683 11.4235 32.2896 10.9512 32.5614L6.84407 34.9232C6.3717 35.195 5.76343 35.0326 5.49161 34.5619L3.27233 30.7366C3.00051 30.2659 3.16294 29.6609 3.6353 29.3891" fill="#FFCC32"/>
<mask id="mask4_11683_1757" style="mask-type:luminance" maskUnits="userSpaceOnUse" x="3" y="26" width="9" height="10">
<path d="M3.6353 29.3907L7.74239 27.0273C8.21476 26.7555 8.82303 26.9179 9.09485 27.3886L11.3141 31.2139C11.586 31.683 11.4235 32.2896 10.9512 32.5614L6.84407 34.9232C6.3717 35.195 5.76343 35.0326 5.49161 34.5619L3.27233 30.7366C3.00051 30.2659 3.16294 29.6609 3.6353 29.3891" fill="white"/>
</mask>
<g mask="url(#mask4_11683_1757)">
<path d="M11.5871 26.7568H3V35.1948H11.5871V26.7568Z" fill="#FFCC32"/>
</g>
<path fill-rule="evenodd" clip-rule="evenodd" d="M3.81796 19.2953L7.10794 17.4208C7.48583 17.2053 7.97311 17.3346 8.19189 17.7059L9.9703 20.7406C10.1874 21.1135 10.0581 21.5942 9.68026 21.8096L6.39028 23.6825C6.01238 23.898 5.5251 23.7687 5.30632 23.3958L3.52791 20.3627C3.30913 19.9898 3.44007 19.5091 3.81796 19.2937" fill="#FFCC32"/>
<mask id="mask5_11683_1757" style="mask-type:luminance" maskUnits="userSpaceOnUse" x="3" y="17" width="8" height="7">
<path d="M3.81796 19.2953L7.10794 17.4208C7.48583 17.2053 7.97311 17.3346 8.19189 17.7059L9.9703 20.7406C10.1874 21.1135 10.0581 21.5942 9.68026 21.8096L6.39028 23.6825C6.01238 23.898 5.5251 23.7687 5.30632 23.3958L3.52791 20.3627C3.30913 19.9898 3.44007 19.5091 3.81796 19.2937" fill="white"/>
</mask>
<g mask="url(#mask5_11683_1757)">
<path d="M10.1885 17.2051H3.30859V23.8977H10.1885V17.2051Z" fill="#FFCC32"/>
</g>
<path fill-rule="evenodd" clip-rule="evenodd" d="M7.79123 12.7271L9.33761 11.847C9.51495 11.7459 9.74367 11.8056 9.84643 11.9813L10.6818 13.4067C10.7845 13.5807 10.7232 13.8078 10.5459 13.9089L8.99949 14.789C8.82215 14.8901 8.59177 14.8304 8.49066 14.6547L7.65532 13.2293C7.55256 13.0536 7.61389 12.8282 7.79123 12.7271Z" fill="#FFCC32"/>
<mask id="mask6_11683_1757" style="mask-type:luminance" maskUnits="userSpaceOnUse" x="7" y="11" width="4" height="4">
<path d="M7.79123 12.7271L9.33761 11.847C9.51495 11.7459 9.74367 11.8056 9.84643 11.9813L10.6818 13.4067C10.7845 13.5807 10.7232 13.8078 10.5459 13.9089L8.99949 14.789C8.82215 14.8901 8.59177 14.8304 8.49066 14.6547L7.65532 13.2293C7.55256 13.0536 7.61389 12.8282 7.79123 12.7271Z" fill="white"/>
</mask>
<g mask="url(#mask6_11683_1757)">
<path d="M10.7867 11.7461H7.55469V14.8902H10.7867V11.7461Z" fill="#FFCC32"/>
</g>
<path d="M81.5837 23.9422H76.0363L74.2032 21.2124H80.2262V20.1086H76.1208C75.7462 20.1086 75.423 19.9727 75.1529 19.7009C74.881 19.4307 74.7451 19.1059 74.7451 18.7363V14.0855H77.4931V17.3772H80.2262V13.5419H74.7451V12.1696C74.7451 11.8082 74.881 11.49 75.1529 11.2199C75.4214 10.948 75.7462 10.8121 76.1208 10.8121H82.956V22.5649C82.956 22.9378 82.8201 23.2627 82.5483 23.5328C82.2798 23.8047 81.9549 23.9406 81.5837 23.9406M65.4354 20.1086V14.0872H68.1834V20.1086H65.4354ZM70.9132 20.1086V13.5419H65.4354V10.8121H72.2706C72.6419 10.8121 72.9667 10.9414 73.2352 11.2016C73.507 11.4618 73.643 11.7834 73.643 12.1696V20.1069H70.9132V20.1086ZM57.5113 20.1086C57.1384 20.1086 56.8168 19.9727 56.545 19.7009C56.2715 19.4307 56.1373 19.1059 56.1373 18.7313V15.4612C56.1373 15.0883 56.2732 14.7634 56.545 14.4949C56.8185 14.2231 57.1383 14.0855 57.5129 14.0855H59.2449L61.078 16.8153H58.8886V17.3772H61.6184V14.0855H64.3481V20.1069H57.5129L57.5113 20.1086ZM56.1373 13.5419L57.9704 10.8121H62.9725C63.3587 10.8121 63.6852 10.9447 63.947 11.2099C64.2139 11.4734 64.3465 11.795 64.3465 12.1696V13.5419H56.1356H56.1373ZM46.8242 20.1086V9.16797H49.554V20.1086H46.8242ZM92.2525 19.2832H92.2657V20.4699H93.4259V22.3047H90.4326V20.1103H85.4173C85.0477 20.1103 84.7228 19.9744 84.4543 19.7025C84.1825 19.434 84.0466 19.1092 84.0466 18.7346V10.8154H86.7946V17.3805H89.5244V10.8138H92.2541V19.2849L92.2525 19.2832ZM53.7473 20.1086H50.0993V17.3788H55.5804L53.7473 20.1086Z" fill="white"/>
<path d="M115.158 37.8879H109.594L107.764 35.1581H112.444L108.916 31.8665H112.851C113.734 32.6256 114.617 33.3781 115.497 34.1256C116.177 34.8035 116.515 35.3305 116.515 35.7001V36.5172C116.515 36.857 116.371 37.1686 116.084 37.4586C115.796 37.7454 115.484 37.8896 115.158 37.8896M108.304 31.3212V29.9489C108.304 29.5876 108.44 29.2677 108.712 28.9992C108.98 28.7273 109.305 28.5914 109.68 28.5914H114.682L116.515 31.3212H108.304ZM105.303 37.8879H99.8381C99.4685 37.8879 99.1436 37.752 98.8751 37.4802C98.6033 37.2117 98.4658 36.8868 98.4658 36.5156V31.8648H101.214V35.1565H103.944V31.8648H106.673V36.5156C106.673 36.8868 106.537 37.2117 106.266 37.4802C105.995 37.752 105.672 37.8879 105.301 37.8879H105.303ZM98.4658 31.3212V29.9489C98.4658 29.5876 98.6017 29.2677 98.8751 28.9992C99.1436 28.7273 99.4685 28.5914 99.8381 28.5914H105.303C105.684 28.5914 106.012 28.724 106.276 28.9909C106.542 29.2544 106.675 29.576 106.675 29.9489V31.3212H98.4674H98.4658ZM86.9815 37.8879V31.8665H89.7295V37.8879H86.9815ZM90.8151 37.8879V31.8665H93.5449V37.8879H90.8151ZM94.6471 37.8879V31.3212H86.9815V28.5914H96.0211C96.394 28.5914 96.7155 28.724 96.979 28.9909C97.2459 29.2544 97.3785 29.576 97.3785 29.9489V37.8863H94.6487L94.6471 37.8879ZM84.0628 37.8879H78.5021C78.1292 37.8879 77.8043 37.752 77.5342 37.4802C77.2624 37.2117 77.1265 36.8868 77.1265 36.5123V29.9489C77.1265 29.5876 77.2624 29.2677 77.5342 28.9992C77.8043 28.7273 78.1275 28.5914 78.5021 28.5914H83.9799C84.3528 28.5914 84.6727 28.724 84.9379 28.9909C85.2047 29.2544 85.3373 29.576 85.3373 29.9489V31.3212H79.8745V35.1581H85.8959L84.0628 37.8879ZM83.9799 34.5963H82.2479L80.4148 31.8665H85.334V33.2405C85.334 33.6134 85.2031 33.935 84.9379 34.1985C84.671 34.4653 84.3528 34.5979 83.9799 34.5979V34.5963ZM71.1034 37.8879V31.3212H70.0012V28.5914H71.1034V25.2998L73.8332 27.1329V37.8879H71.1034ZM74.3785 31.3212V28.5914H74.7348L76.5679 31.3212H74.3785ZM67.7272 37.8879H62.1633L60.3335 35.1581H65.014L61.4854 31.8665H65.4201C66.3035 32.6256 67.1869 33.3781 68.067 34.1256C68.7465 34.8035 69.0846 35.3305 69.0846 35.7001V36.5172C69.0846 36.857 68.9404 37.1686 68.6537 37.4586C68.3653 37.7454 68.0537 37.8896 67.7272 37.8896V37.8879ZM60.8738 31.3212V29.9489C60.8738 29.5876 61.0097 29.2677 61.2815 28.9992C61.55 28.7273 61.8749 28.5914 62.2494 28.5914H67.2515L69.0846 31.3212H60.8738ZM56.2231 27.4893V25.3015H58.9711V27.4893H56.2231ZM56.2231 37.8879V28.5931H58.9711V37.8879H56.2231ZM53.6789 37.8879H48.115L46.2852 35.1581H50.9657L47.4371 31.8665H51.3718C52.2552 32.6256 53.1386 33.3781 54.0187 34.1256C54.6982 34.8035 55.0363 35.3305 55.0363 35.7001V36.5172C55.0363 36.857 54.8921 37.1686 54.6054 37.4586C54.317 37.7454 54.0054 37.8896 53.6789 37.8896V37.8879ZM46.8271 31.3212V29.9489C46.8271 29.5876 46.963 29.2677 47.2349 28.9992C47.5034 28.7273 47.8282 28.5914 48.2028 28.5914H53.2049L55.038 31.3212H46.8271Z" fill="white"/>
</svg>
