<svg width="24" height="24" viewBox="0 0 24 24" fill="none" xmlns="http://www.w3.org/2000/svg">
<path fill-rule="evenodd" clip-rule="evenodd" d="M20.1068 17.4168C21.1782 15.8134 21.75 13.9284 21.75 12C21.7473 9.41498 20.7192 6.93661 18.8913 5.10872C17.0634 3.28084 14.585 2.25273 12 2.25C10.0716 2.25 8.18657 2.82183 6.58319 3.89317C4.97982 4.96452 3.73013 6.48726 2.99218 8.26884C2.25422 10.0504 2.06114 12.0108 2.43735 13.9021C2.81355 15.7934 3.74215 17.5307 5.10571 18.8943C6.46927 20.2579 8.20656 21.1865 10.0979 21.5627C11.9892 21.9389 13.9496 21.7458 15.7312 21.0078C17.5127 20.2699 19.0355 19.0202 20.1068 17.4168ZM16.4433 9.4629C16.4056 9.37185 16.3503 9.28913 16.2806 9.21948C16.2109 9.14974 16.1282 9.09443 16.0371 9.05668C15.9461 9.01894 15.8485 8.99951 15.7499 8.99951C15.6514 8.99951 15.5538 9.01894 15.4627 9.05668C15.3717 9.09443 15.289 9.14974 15.2193 9.21948L10.4999 13.9398L8.78055 12.2195C8.63982 12.0787 8.44895 11.9997 8.24993 11.9997C8.05091 11.9997 7.86003 12.0787 7.7193 12.2195C7.57857 12.3602 7.49951 12.5511 7.49951 12.7501C7.49951 12.9491 7.57857 13.14 7.7193 13.2807L9.9693 15.5307C10.039 15.6005 10.1217 15.6558 10.2127 15.6935C10.3038 15.7313 10.4014 15.7507 10.4999 15.7507C10.5985 15.7507 10.6961 15.7313 10.7871 15.6935C10.8782 15.6558 10.9609 15.6005 11.0306 15.5307L16.2806 10.2807C16.3503 10.2111 16.4056 10.1284 16.4433 10.0373C16.4811 9.94626 16.5005 9.84866 16.5005 9.7501C16.5005 9.65154 16.4811 9.55395 16.4433 9.4629Z" fill="black"/>
</svg>
