<svg width="20" height="20" viewBox="0 0 20 20" fill="none" xmlns="http://www.w3.org/2000/svg">
<path fill-rule="evenodd" clip-rule="evenodd" d="M18.1068 15.4168C19.1782 13.8134 19.75 11.9284 19.75 10C19.7473 7.41498 18.7192 4.93661 16.8913 3.10872C15.0634 1.28084 12.585 0.25273 10 0.25C8.07164 0.25 6.18657 0.821828 4.58319 1.89317C2.97982 2.96452 1.73013 4.48726 0.992179 6.26884C0.254224 8.05042 0.061142 10.0108 0.437348 11.9021C0.813554 13.7934 1.74215 15.5307 3.10571 16.8943C4.46927 18.2579 6.20656 19.1865 8.09787 19.5627C9.98919 19.9389 11.9496 19.7458 13.7312 19.0078C15.5127 18.2699 17.0355 17.0202 18.1068 15.4168ZM14.4433 7.4629C14.4056 7.37185 14.3503 7.28913 14.2806 7.21948C14.2109 7.14974 14.1282 7.09443 14.0371 7.05668C13.9461 7.01894 13.8485 6.99951 13.7499 6.99951C13.6514 6.99951 13.5538 7.01894 13.4627 7.05668C13.3717 7.09443 13.289 7.14974 13.2193 7.21948L8.49993 11.9398L6.78055 10.2195C6.63982 10.0787 6.44895 9.99969 6.24993 9.99969C6.05091 9.99969 5.86003 10.0787 5.7193 10.2195C5.57857 10.3602 5.49951 10.5511 5.49951 10.7501C5.49951 10.9491 5.57857 11.14 5.7193 11.2807L7.9693 13.5307C8.03896 13.6005 8.12168 13.6558 8.21272 13.6935C8.30377 13.7313 8.40137 13.7507 8.49993 13.7507C8.59849 13.7507 8.69609 13.7313 8.78713 13.6935C8.87818 13.6558 8.9609 13.6005 9.03055 13.5307L14.2806 8.28073C14.3503 8.21107 14.4056 8.12836 14.4433 8.03731C14.4811 7.94626 14.5005 7.84866 14.5005 7.7501C14.5005 7.65154 14.4811 7.55395 14.4433 7.4629Z" fill="white"/>
</svg>
