<svg width="40" height="40" viewBox="0 0 40 40" fill="none" xmlns="http://www.w3.org/2000/svg">
<path d="M36.25 32.5C36.25 32.8315 36.1183 33.1495 35.8839 33.3839C35.6495 33.6183 35.3315 33.75 35 33.75H5C4.66848 33.75 4.35054 33.6183 4.11612 33.3839C3.8817 33.1495 3.75 32.8315 3.75 32.5V7.5C3.75 7.16848 3.8817 6.85054 4.11612 6.61612C4.35054 6.3817 4.66848 6.25 5 6.25C5.33152 6.25 5.64946 6.3817 5.88388 6.61612C6.1183 6.85054 6.25 7.16848 6.25 7.5V24.4828L14.1156 16.6156C14.2317 16.4994 14.3696 16.4072 14.5213 16.3443C14.6731 16.2814 14.8357 16.249 15 16.249C15.1643 16.249 15.3269 16.2814 15.4787 16.3443C15.6304 16.4072 15.7683 16.4994 15.8844 16.6156L20 20.7328L28.2328 12.5H25C24.6685 12.5 24.3505 12.3683 24.1161 12.1339C23.8817 11.8995 23.75 11.5815 23.75 11.25C23.75 10.9185 23.8817 10.6005 24.1161 10.3661C24.3505 10.1317 24.6685 10 25 10H31.25C31.5815 10 31.8995 10.1317 32.1339 10.3661C32.3683 10.6005 32.5 10.9185 32.5 11.25V17.5C32.5 17.8315 32.3683 18.1495 32.1339 18.3839C31.8995 18.6183 31.5815 18.75 31.25 18.75C30.9185 18.75 30.6005 18.6183 30.3661 18.3839C30.1317 18.1495 30 17.8315 30 17.5V14.2672L20.8844 23.3844C20.7683 23.5006 20.6304 23.5928 20.4787 23.6557C20.3269 23.7186 20.1643 23.751 20 23.751C19.8357 23.751 19.6731 23.7186 19.5213 23.6557C19.3696 23.5928 19.2317 23.5006 19.1156 23.3844L15 19.2672L6.25 28.0172V31.25H35C35.3315 31.25 35.6495 31.3817 35.8839 31.6161C36.1183 31.8505 36.25 32.1685 36.25 32.5Z" fill="#161515"/>
</svg>
