<svg width="40" height="40" viewBox="0 0 40 40" fill="none" xmlns="http://www.w3.org/2000/svg">
<path d="M35.2906 16.0656C34.7016 15.45 34.0922 14.8156 33.8625 14.2578C33.65 13.7469 33.6375 12.9 33.625 12.0797C33.6016 10.5547 33.5766 8.82656 32.375 7.625C31.1734 6.42344 29.4453 6.39844 27.9203 6.375C27.1 6.3625 26.2531 6.35 25.7422 6.1375C25.1859 5.90781 24.55 5.29844 23.9344 4.70937C22.8562 3.67344 21.6313 2.5 20 2.5C18.3687 2.5 17.1453 3.67344 16.0656 4.70937C15.45 5.29844 14.8156 5.90781 14.2578 6.1375C13.75 6.35 12.9 6.3625 12.0797 6.375C10.5547 6.39844 8.82656 6.42344 7.625 7.625C6.42344 8.82656 6.40625 10.5547 6.375 12.0797C6.3625 12.9 6.35 13.7469 6.1375 14.2578C5.90781 14.8141 5.29844 15.45 4.70937 16.0656C3.67344 17.1438 2.5 18.3687 2.5 20C2.5 21.6313 3.67344 22.8547 4.70937 23.9344C5.29844 24.55 5.90781 25.1844 6.1375 25.7422C6.35 26.2531 6.3625 27.1 6.375 27.9203C6.39844 29.4453 6.42344 31.1734 7.625 32.375C8.82656 33.5766 10.5547 33.6016 12.0797 33.625C12.9 33.6375 13.7469 33.65 14.2578 33.8625C14.8141 34.0922 15.45 34.7016 16.0656 35.2906C17.1438 36.3266 18.3687 37.5 20 37.5C21.6313 37.5 22.8547 36.3266 23.9344 35.2906C24.55 34.7016 25.1844 34.0922 25.7422 33.8625C26.2531 33.65 27.1 33.6375 27.9203 33.625C29.4453 33.6016 31.1734 33.5766 32.375 32.375C33.5766 31.1734 33.6016 29.4453 33.625 27.9203C33.6375 27.1 33.65 26.2531 33.8625 25.7422C34.0922 25.1859 34.7016 24.55 35.2906 23.9344C36.3266 22.8562 37.5 21.6313 37.5 20C37.5 18.3687 36.3266 17.1453 35.2906 16.0656ZM33.4859 22.2047C32.7375 22.9859 31.9625 23.7938 31.5516 24.7859C31.1578 25.7391 31.1406 26.8281 31.125 27.8828C31.1094 28.9766 31.0922 30.1219 30.6063 30.6063C30.1203 31.0906 28.9828 31.1094 27.8828 31.125C26.8281 31.1406 25.7391 31.1578 24.7859 31.5516C23.7938 31.9625 22.9859 32.7375 22.2047 33.4859C21.4234 34.2344 20.625 35 20 35C19.375 35 18.5703 34.2312 17.7953 33.4859C17.0203 32.7406 16.2063 31.9625 15.2141 31.5516C14.2609 31.1578 13.1719 31.1406 12.1172 31.125C11.0234 31.1094 9.87812 31.0922 9.39375 30.6063C8.90937 30.1203 8.89062 28.9828 8.875 27.8828C8.85938 26.8281 8.84219 25.7391 8.44844 24.7859C8.0375 23.7938 7.2625 22.9859 6.51406 22.2047C5.76562 21.4234 5 20.625 5 20C5 19.375 5.76875 18.5703 6.51406 17.7953C7.25937 17.0203 8.0375 16.2063 8.44844 15.2141C8.84219 14.2609 8.85938 13.1719 8.875 12.1172C8.89062 11.0234 8.90781 9.87812 9.39375 9.39375C9.87969 8.90937 11.0172 8.89062 12.1172 8.875C13.1719 8.85938 14.2609 8.84219 15.2141 8.44844C16.2063 8.0375 17.0141 7.2625 17.7953 6.51406C18.5766 5.76562 19.375 5 20 5C20.625 5 21.4297 5.76875 22.2047 6.51406C22.9797 7.25937 23.7938 8.0375 24.7859 8.44844C25.7391 8.84219 26.8281 8.85938 27.8828 8.875C28.9766 8.89062 30.1219 8.90781 30.6063 9.39375C31.0906 9.87969 31.1094 11.0172 31.125 12.1172C31.1406 13.1719 31.1578 14.2609 31.5516 15.2141C31.9625 16.2063 32.7375 17.0141 33.4859 17.7953C34.2344 18.5766 35 19.375 35 20C35 20.625 34.2312 21.4297 33.4859 22.2047ZM27.1344 15.3656C27.2506 15.4817 27.3428 15.6196 27.4057 15.7713C27.4686 15.9231 27.501 16.0857 27.501 16.25C27.501 16.4143 27.4686 16.5769 27.4057 16.7287C27.3428 16.8804 27.2506 17.0183 27.1344 17.1344L18.3844 25.8844C18.2683 26.0006 18.1304 26.0928 17.9787 26.1557C17.8269 26.2186 17.6643 26.251 17.5 26.251C17.3357 26.251 17.1731 26.2186 17.0213 26.1557C16.8696 26.0928 16.7317 26.0006 16.6156 25.8844L12.8656 22.1344C12.6311 21.8998 12.4993 21.5817 12.4993 21.25C12.4993 20.9183 12.6311 20.6002 12.8656 20.3656C13.1002 20.1311 13.4183 19.9993 13.75 19.9993C14.0817 19.9993 14.3998 20.1311 14.6344 20.3656L17.5 23.2328L25.3656 15.3656C25.4817 15.2494 25.6196 15.1572 25.7713 15.0943C25.9231 15.0314 26.0857 14.999 26.25 14.999C26.4143 14.999 26.5769 15.0314 26.7287 15.0943C26.8804 15.1572 27.0183 15.2494 27.1344 15.3656Z" fill="#161515"/>
</svg>
