<svg xmlns="http://www.w3.org/2000/svg" width="24" height="25" viewBox="0 0 24 25" fill="none">
  <path fill-rule="evenodd" clip-rule="evenodd" d="M20.1068 17.9168C21.1782 16.3134 21.75 14.4284 21.75 12.5C21.7473 9.91498 20.7192 7.43661 18.8913 5.60872C17.0634 3.78084 14.585 2.75273 12 2.75C10.0716 2.75 8.18657 3.32183 6.58319 4.39317C4.97982 5.46452 3.73013 6.98726 2.99218 8.76884C2.25422 10.5504 2.06114 12.5108 2.43735 14.4021C2.81355 16.2934 3.74215 18.0307 5.10571 19.3943C6.46927 20.7579 8.20656 21.6865 10.0979 22.0627C11.9892 22.4389 13.9496 22.2458 15.7312 21.5078C17.5127 20.7699 19.0355 19.5202 20.1068 17.9168ZM16.4433 9.9629C16.4056 9.87185 16.3503 9.78913 16.2806 9.71948C16.2109 9.64974 16.1282 9.59443 16.0371 9.55668C15.9461 9.51894 15.8485 9.49951 15.7499 9.49951C15.6514 9.49951 15.5538 9.51894 15.4627 9.55668C15.3717 9.59443 15.289 9.64974 15.2193 9.71948L10.4999 14.4398L8.78055 12.7195C8.63982 12.5787 8.44895 12.4997 8.24993 12.4997C8.05091 12.4997 7.86003 12.5787 7.7193 12.7195C7.57857 12.8602 7.49951 13.0511 7.49951 13.2501C7.49951 13.4491 7.57857 13.64 7.7193 13.7807L9.9693 16.0307C10.039 16.1005 10.1217 16.1558 10.2127 16.1935C10.3038 16.2313 10.4014 16.2507 10.4999 16.2507C10.5985 16.2507 10.6961 16.2313 10.7871 16.1935C10.8782 16.1558 10.9609 16.1005 11.0306 16.0307L16.2806 10.7807C16.3503 10.7111 16.4056 10.6284 16.4433 10.5373C16.4811 10.4463 16.5005 10.3487 16.5005 10.2501C16.5005 10.1515 16.4811 10.0539 16.4433 9.9629Z" fill="black"/>
</svg>